<svg xmlns="http://www.w3.org/2000/svg"  viewBox="0 0 64 64" width="50px" height="50px"><path d="M 51 2 A 5 5 0 0 0 46.849609 4.2207031 L 36.353516 2.3320312 L 34.636719 2.0214844 L 34.0625 3.8066406 L 29.138672 19.117188 C 22.50601 19.63419 16.640194 21.931493 12.466797 25.316406 A 6.5 6.5 0 0 0 7.5 23 A 6.5 6.5 0 0 0 6.109375 35.841797 C 6.0411703 36.388219 6 36.94093 6 37.5 C 6 47.72 17.64 56 32 56 C 46.36 56 58 47.72 58 37.5 C 58 36.942242 57.958513 36.390874 57.890625 35.845703 A 6.5 6.5 0 0 0 56.5 23 A 6.5 6.5 0 0 0 51.533203 25.316406 C 47.433265 21.991073 41.696699 19.72336 35.207031 19.154297 L 37.591797 6.6171875 L 46.136719 8.15625 A 5 5 0 0 0 51 12 A 5 5 0 0 0 51 2 z M 21.150391 29 C 23.830391 29 26 31.24 26 34 C 26 36.76 23.830391 39 21.150391 39 C 18.480391 39.06 16.300781 36.76 16.300781 34 C 16.300781 31.24 18.480391 29 21.150391 29 z M 42.849609 29 C 45.519609 29 47.699219 31.24 47.699219 34 C 47.699219 36.76 45.519609 39.06 42.849609 39 C 40.169609 39 38 36.76 38 34 C 38 31.24 40.169609 29 42.849609 29 z M 22.199219 43.400391 C 22.229219 43.420391 25.83 46.400391 32 46.400391 C 38.17 46.400391 42.110625 43.859844 42.140625 43.839844 L 44.199219 46.599609 C 44.009219 46.739609 39.58 50 32 50 C 24.42 50 19.990781 46.739609 19.800781 46.599609 L 22.199219 43.400391 z"/></svg>